<?xml version="1.0" standalone="no"?>
<!DOCTYPE svg PUBLIC "-//W3C//DTD SVG 20010904//EN"
 "http://www.w3.org/TR/2001/REC-SVG-20010904/DTD/svg10.dtd">
<svg version="1.0" xmlns="http://www.w3.org/2000/svg"
 width="1000.000000pt" height="1000.000000pt" viewBox="0 0 1000.000000 1000.000000"
 preserveAspectRatio="xMidYMid meet">
<metadata>
Created by potrace 1.11, written by Peter Selinger 2001-2013
</metadata>
<g transform="translate(0.000000,1000.000000) scale(0.100000,-0.100000)"
fill="#000000" stroke="none">
<path d="M1896 8927 c-20 -21 -22 -21 -39 -4 -22 22 -49 22 -78 -2 -21 -17
-24 -30 -27 -100 l-4 -81 131 0 131 0 0 74 c0 63 -3 79 -22 101 -31 35 -64 40
-92 12z m-42 -55 c3 -10 5 -33 4 -53 0 -34 -2 -36 -34 -36 -34 0 -34 0 -34 48
0 35 5 51 17 57 21 12 41 5 47 -16z m104 19 c9 -5 12 -25 10 -57 -3 -48 -4
-49 -35 -51 -19 -1 -33 4 -34 10 -1 7 -2 24 -3 38 -5 56 24 84 62 60z"/>
<path d="M3120 8940 l-805 -5 -2 -430 c-16 -3323 -16 -3178 2 -3171 64 24 320
79 430 92 28 3 61 7 75 10 146 23 609 24 680 0 8 -2 38 -7 67 -10 101 -11 249
-48 398 -98 103 -34 316 -145 409 -212 261 -188 433 -440 511 -751 27 -105 33
-145 41 -277 l7 -98 -154 0 c-392 -2 -733 0 -736 3 -2 2 -5 30 -8 63 -26 280
-171 451 -470 554 -382 133 -875 80 -1079 -115 -189 -180 -232 -442 -100 -614
87 -116 249 -197 544 -274 140 -37 169 -43 565 -127 588 -125 873 -224 1120
-389 63 -42 213 -181 258 -239 54 -70 163 -291 183 -372 15 -62 26 -107 29
-120 29 -151 21 -347 -21 -500 -8 -30 -16 -62 -18 -70 -8 -33 -69 -177 -103
-244 -47 -92 -126 -213 -230 -354 -45 -61 -83 -117 -83 -122 0 -10 595 -7 705
4 22 2 76 6 120 10 44 3 96 8 115 11 19 2 60 7 90 10 30 4 66 8 80 10 14 2 45
7 70 10 25 3 68 10 95 15 28 5 63 12 78 14 168 28 458 108 662 184 935 345
1651 1060 2045 2043 123 307 238 757 265 1044 4 38 9 78 11 90 26 130 25 767
-1 970 -2 17 -6 50 -9 75 -4 25 -9 65 -12 90 -3 25 -19 113 -35 195 -106 544
-301 1035 -574 1449 -103 156 -215 309 -249 341 -6 6 -36 39 -66 75 -30 36
-104 114 -164 174 -377 373 -829 648 -1331 809 -118 38 -288 83 -351 93 -22 3
-42 8 -46 10 -9 6 -255 50 -353 64 -44 6 -96 13 -115 16 -19 3 -53 7 -75 9
-22 2 -62 6 -90 9 -88 10 -138 15 -240 21 -55 4 -116 8 -135 11 -127 15 -945
21 -2000 14z m302 -529 c-4 -26 -1 -29 35 -35 111 -21 181 -113 170 -227 -4
-34 -15 -75 -27 -93 -27 -44 -90 -87 -138 -93 -36 -5 -39 -7 -38 -37 1 -27 -3
-31 -27 -34 -27 -3 -32 5 -28 49 1 12 -10 18 -41 23 -58 9 -102 37 -135 87
-23 36 -27 52 -27 113 0 75 15 117 57 157 30 29 93 56 136 58 9 1 12 10 9 31
-4 23 0 30 16 32 34 6 43 -1 38 -31z m-369 -6 c20 -4 27 -11 27 -30 0 -21 -4
-24 -27 -19 -88 16 -153 3 -201 -40 -80 -71 -81 -233 -2 -300 45 -37 93 -49
170 -42 62 6 68 5 66 -11 -2 -25 -15 -32 -75 -39 -108 -13 -216 39 -253 123
-14 31 -20 67 -20 115 0 119 61 210 158 237 64 18 97 19 157 6z m958 -7 c7
-43 8 -43 -91 -44 -52 -1 -104 -2 -116 -3 -18 -1 -20 -7 -20 -76 l1 -75 35 -1
c19 0 65 0 103 1 66 1 67 1 67 -24 0 -26 -1 -26 -82 -27 -46 -1 -92 -1 -103 0
-19 2 -21 -4 -20 -81 l0 -83 123 -3 122 -3 0 -24 0 -25 -150 0 -150 0 0 238 0
237 140 0 c77 0 141 -3 141 -7z m329 -3 c50 -11 79 -33 96 -74 45 -105 -37
-191 -185 -196 l-64 -2 -1 -96 0 -97 -28 0 -28 0 0 233 c0 129 2 236 4 238 8
7 168 3 206 -6z m427 -196 c45 -112 89 -219 98 -236 l15 -33 -33 0 c-32 0 -34
3 -57 66 -13 39 -30 68 -41 72 -15 6 -88 7 -174 3 -16 -1 -26 -16 -45 -68 -23
-63 -28 -68 -57 -71 l-32 -3 95 233 c52 127 100 235 106 239 31 19 45 -3 125
-202z m16 -524 c33 -69 128 -58 151 18 3 10 15 17 31 17 23 0 25 -3 19 -27
-11 -45 -33 -70 -73 -87 -72 -28 -151 -1 -177 61 -19 45 -18 53 9 53 17 0 28
-10 40 -35z m-776 -172 c43 -20 65 -56 66 -111 0 -39 -4 -49 -35 -78 l-36 -32
29 -13 c83 -34 74 -166 -14 -212 -49 -25 -140 -32 -197 -15 -38 12 -46 18 -48
42 -3 26 -2 27 20 15 13 -7 56 -13 98 -13 90 0 126 18 136 69 12 68 -18 97
-106 101 -51 2 -55 4 -58 28 -3 25 -1 26 42 26 73 0 102 20 112 79 5 25 -18
60 -48 72 -34 14 -115 14 -152 -1 -36 -13 -36 -13 -36 9 0 26 17 37 70 48 56
11 115 6 157 -14z m-896 8 c14 -1 16 -25 17 -188 0 -255 -2 -233 27 -233 14 0
25 -4 26 -10 0 -5 1 -48 1 -95 0 -47 -1 -89 -1 -95 -1 -5 -12 -10 -26 -10 -25
0 -25 1 -25 80 l0 80 -175 0 -175 0 0 -80 0 -80 -28 2 -27 2 0 103 c0 77 3
103 12 103 17 0 80 98 110 172 22 55 43 134 57 218 l6 35 92 -1 c51 -1 100 -2
109 -3z m232 0 c5 -1 7 -87 5 -191 -2 -105 -1 -190 2 -190 3 1 50 66 105 145
145 209 144 209 159 226 7 9 24 15 37 14 l24 -2 2 -236 2 -237 -29 0 -30 0 2
196 c3 187 2 195 -14 173 -9 -13 -70 -100 -136 -194 -105 -151 -121 -170 -149
-173 l-30 -3 -1 233 c0 128 2 236 4 240 2 3 12 5 22 3 9 -2 21 -4 25 -4z
m1127 -209 c46 -114 86 -211 90 -217 23 -33 19 -45 -13 -45 -31 0 -33 3 -55
65 -13 36 -28 68 -34 71 -8 5 -122 8 -191 5 -8 -1 -20 -20 -27 -43 -22 -77
-38 -98 -70 -98 l-29 0 20 48 c34 80 36 84 79 192 23 58 51 124 61 147 11 24
19 47 19 52 0 18 30 39 48 34 14 -3 42 -60 102 -211z m233 209 c4 -1 7 -89 5
-197 -3 -162 -1 -192 10 -177 7 10 55 79 107 153 52 74 109 156 127 181 19 27
39 45 48 44 8 -2 21 -4 28 -4 9 -1 12 -55 12 -236 l0 -235 -29 0 -30 0 2 195
c2 107 2 193 1 192 -10 -10 -258 -365 -261 -374 -3 -7 -19 -13 -37 -13 l-32 0
1 228 c1 125 2 232 3 239 1 6 10 10 20 8 9 -2 21 -4 25 -4z m515 -102 l-3 -99
128 0 127 0 0 99 c0 55 3 102 8 104 4 2 16 1 27 -2 20 -6 20 -14 20 -238 l0
-233 -27 0 -27 0 -3 108 -3 107 -122 1 -123 1 -1 -56 c-2 -157 -2 -156 -31
-159 l-28 -3 0 234 c0 128 2 236 5 239 3 3 17 3 31 0 l25 -5 -3 -98z m634 85
c96 -235 178 -438 178 -445 0 -5 -13 -9 -28 -9 -25 0 -30 6 -52 66 -14 36 -29
68 -33 71 -7 4 -120 6 -183 4 -16 -1 -25 -15 -44 -67 -23 -67 -34 -78 -69 -72
-20 3 -20 3 -1 43 11 22 19 45 20 51 0 6 6 24 14 40 8 16 40 92 71 169 32 77
61 147 66 156 11 21 51 17 61 -7z"/>
<path d="M3301 8314 c-120 -50 -95 -291 31 -297 l33 -2 1 157 c1 173 2 170
-65 142z"/>
<path d="M3422 8166 l1 -164 36 10 c74 20 110 76 107 164 -2 71 -27 113 -80
138 -66 31 -65 34 -64 -148z"/>
<path d="M4189 8330 c-5 -128 -4 -150 11 -152 117 -12 191 24 190 91 -1 55
-45 82 -136 85 -62 2 -64 1 -65 -24z"/>
<path d="M4657 8324 c-5 -9 -77 -194 -77 -198 0 -3 140 0 153 2 4 1 3 11 -4
23 -6 12 -23 57 -39 101 -15 44 -30 76 -33 72z"/>
<path d="M2979 7462 c-12 -2 -20 -22 -29 -65 -16 -84 -51 -166 -100 -238 -22
-32 -40 -61 -40 -64 0 -3 59 -5 130 -5 l130 0 -2 187 -3 187 -35 1 c-19 0 -42
-1 -51 -3z"/>
<path d="M4350 7415 c-6 -16 -22 -57 -35 -90 -13 -33 -26 -67 -29 -76 -6 -14
4 -16 74 -16 44 0 80 1 80 1 0 1 -18 48 -39 106 -39 103 -40 105 -51 75z"/>
<path d="M5795 7382 c-10 -31 -24 -68 -31 -82 -32 -68 -33 -68 55 -67 l79 0
-25 66 c-14 36 -30 80 -35 96 -17 49 -23 48 -43 -13z"/>
<path d="M1855 8673 c-54 -11 -78 -28 -95 -66 -10 -22 -16 -47 -15 -56 2 -9 4
-24 4 -33 1 -9 15 -30 31 -47 56 -55 169 -49 214 12 24 32 26 94 6 133 -22 41
-92 68 -145 57z m105 -73 c55 -63 -15 -140 -109 -119 -43 9 -60 27 -65 65 -7
54 35 86 107 81 34 -3 53 -11 67 -27z"/>
<path d="M1756 8393 c-3 -4 -6 -52 -6 -109 0 -93 2 -102 20 -107 18 -5 20 0
20 42 l0 46 110 -1 c108 -2 110 -1 110 21 0 22 -4 23 -72 24 -164 0 -148 -4
-148 40 0 36 -18 59 -34 44z"/>
<path d="M1970 8120 c-19 -17 -47 -43 -62 -57 l-27 -26 -59 52 c-33 28 -62 51
-65 51 -3 0 -5 -10 -4 -23 2 -20 81 -107 98 -107 4 0 9 -6 12 -13 4 -10 -8
-13 -51 -13 -52 1 -57 -1 -60 -21 -3 -23 -3 -23 127 -23 122 0 131 1 131 19 0
24 -13 28 -73 26 l-49 -2 62 62 c46 46 61 68 58 85 -3 22 -4 22 -38 -10z"/>
<path d="M1803 7860 c-34 -14 -60 -63 -55 -103 9 -77 102 -126 184 -97 23 8
49 26 59 40 35 49 32 151 -5 158 -15 3 -17 -2 -11 -40 4 -23 2 -55 -4 -70 -10
-27 -63 -63 -75 -51 -3 4 -6 44 -6 90 l0 83 -32 -1 c-18 0 -43 -4 -55 -9z m49
-79 c6 -87 -5 -99 -48 -56 -29 29 -26 58 8 88 30 26 36 22 40 -32z"/>
<path d="M1811 7587 c-60 -31 -83 -115 -46 -171 47 -71 168 -75 229 -7 22 24
27 98 8 132 -28 52 -131 77 -191 46z m110 -38 c69 -17 76 -111 10 -135 -88
-34 -180 35 -137 102 26 39 63 49 127 33z"/>
<path d="M1802 7290 c-53 -33 -71 -95 -39 -144 14 -21 14 -25 2 -30 -8 -3 -15
-12 -15 -20 0 -13 27 -15 193 -13 184 2 192 3 192 22 0 18 -6 20 -72 19 -68
-1 -71 0 -62 18 27 50 11 113 -35 144 -39 25 -125 27 -164 4z m160 -60 c21
-26 22 -46 5 -80 -11 -23 -18 -25 -80 -26 -72 0 -93 11 -102 56 -10 54 47 92
118 79 24 -4 49 -17 59 -29z"/>
<path d="M1809 7002 l-57 -3 -1 -103 -2 -103 128 1 c123 1 128 2 131 22 3 21
-1 22 -85 22 -147 0 -133 -7 -133 62 0 33 3 59 8 59 4 -1 53 -1 110 0 95 1
102 2 102 21 0 16 -7 20 -37 21 -21 0 -54 1 -73 2 -19 1 -60 1 -91 -1z"/>
<path d="M1854 6660 c0 -55 2 -61 21 -58 17 3 20 10 20 58 0 48 -3 55 -21 58
-19 3 -21 -2 -20 -58z"/>
<path d="M1750 6510 c0 -18 7 -20 54 -20 l54 0 -1 -65 -1 -65 -53 0 c-46 0
-53 -3 -53 -20 0 -11 6 -20 13 -21 6 0 65 -2 130 -2 114 -2 117 -2 117 20 0
20 -6 22 -57 25 l-58 3 -1 50 c-1 72 1 75 62 75 47 0 54 2 54 20 0 19 -7 20
-130 20 -123 0 -130 -1 -130 -20z"/>
<path d="M1750 6224 c0 -9 6 -21 13 -27 23 -23 102 -84 142 -110 l40 -27 -98
0 c-88 0 -97 -2 -97 -19 0 -26 9 -27 140 -26 106 1 115 2 118 20 1 15 -22 38
-93 89 -52 38 -95 69 -95 70 0 0 42 1 93 1 86 0 92 1 95 21 3 20 -1 21 -128
22 -110 1 -130 -2 -130 -14z"/>
<path d="M1620 6200 c0 -10 11 -25 25 -34 14 -9 25 -25 25 -36 0 -11 -11 -27
-25 -36 -14 -9 -25 -25 -25 -35 0 -16 4 -17 31 -7 75 26 65 140 -13 161 -12 4
-18 -1 -18 -13z"/>
<path d="M1803 5929 c-35 -13 -57 -56 -56 -110 2 -55 8 -69 30 -69 12 0 14 9
10 50 -6 54 11 86 48 92 18 3 20 -2 17 -44 -7 -91 49 -140 121 -107 14 6 29
21 35 34 12 26 6 83 -11 104 -9 11 -9 15 1 18 6 3 12 13 12 22 0 16 -11 18
-93 18 -51 0 -102 -3 -114 -8z m165 -64 c16 -35 15 -55 -4 -76 -13 -14 -21
-15 -45 -7 -27 9 -29 14 -29 59 0 49 0 49 33 49 26 0 36 -6 45 -25z"/>
<path d="M1795 5670 c-34 -13 -46 -36 -47 -88 0 -66 9 -93 29 -85 11 4 14 15
9 42 -7 48 2 79 26 87 26 8 40 -7 44 -48 6 -46 12 -60 26 -56 7 3 14 22 14 44
2 54 2 52 25 64 17 9 25 8 41 -7 17 -15 19 -26 14 -75 -5 -48 -3 -58 9 -58 21
0 30 26 28 88 -1 66 -29 102 -79 102 -26 0 -37 -6 -48 -27 -10 -18 -15 -22
-16 -11 0 20 -48 38 -75 28z"/>
<path d="M1750 5411 c0 -13 32 -42 96 -88 l95 -68 -95 -3 c-87 -2 -96 -5 -96
-22 0 -17 10 -19 108 -22 59 -2 117 -2 130 0 43 6 23 37 -65 102 -49 35 -92
67 -96 70 -5 4 29 7 75 6 98 -2 108 0 108 25 0 18 -9 19 -130 19 -121 0 -130
-1 -130 -19z"/>
<path d="M1080 5314 c-13 -32 -12 -39 1 -83 7 -23 24 -46 45 -60 29 -20 43
-23 94 -19 48 3 66 10 86 30 46 46 51 150 7 156 -20 3 -21 1 -13 -27 13 -47
-1 -83 -41 -104 -42 -22 -93 -16 -126 15 -22 20 -24 29 -19 71 4 37 2 47 -10
47 -8 0 -19 -12 -24 -26z"/>
<path d="M1982 5142 c-6 -2 -12 -12 -12 -23 0 -17 -7 -19 -67 -18 -38 0 -87 1
-110 0 l-43 -1 0 -65 c0 -36 3 -65 8 -66 85 -8 212 -62 212 -90 0 -5 29 -9 65
-9 58 0 65 2 65 20 0 17 -7 20 -45 20 l-45 0 0 95 0 95 46 0 c41 0 45 2 42 22
-3 19 -10 22 -53 23 -28 1 -56 0 -63 -3z m-12 -147 l0 -65 -40 29 c-22 16 -63
34 -90 41 -43 10 -50 15 -50 36 0 24 2 24 90 24 l90 0 0 -65z"/>
<path d="M1140 5083 c-19 -10 -43 -33 -54 -51 -19 -34 -17 -52 11 -121 3 -9 1
-11 -6 -7 -7 5 -11 -1 -11 -13 0 -20 5 -21 190 -21 183 0 190 1 190 20 0 18
-7 20 -70 20 -70 0 -81 5 -58 28 15 15 12 78 -6 103 -37 53 -126 73 -186 42z
m141 -52 c17 -14 23 -28 22 -55 -2 -56 -16 -66 -93 -66 -61 0 -69 2 -84 25
-23 34 -20 62 9 90 31 32 110 35 146 6z"/>
<path d="M1082 4798 c2 -17 18 -28 63 -46 33 -14 77 -32 98 -41 l38 -17 -101
-38 c-85 -33 -100 -42 -100 -61 0 -22 4 -21 122 27 68 27 130 47 138 45 8 -3
39 -14 68 -26 l52 -21 0 23 c0 18 -9 26 -37 36 -21 8 -56 21 -78 31 -55 24
-156 67 -216 91 l-50 19 3 -22z"/>
<path d="M1944 4690 l-62 -50 -61 45 c-34 25 -63 45 -66 45 -3 0 -5 -10 -5
-23 0 -15 11 -29 33 -41 72 -42 72 -45 17 -84 -30 -21 -50 -42 -50 -53 0 -27
10 -24 70 21 29 22 56 40 58 40 3 0 28 -17 56 -38 74 -56 76 -56 76 -30 0 16
-16 34 -51 59 l-50 37 51 37 c36 26 50 43 50 61 0 13 -1 24 -2 24 -2 -1 -31
-23 -64 -50z"/>
<path d="M1080 4524 c0 -22 10 -38 38 -61 40 -33 82 -72 82 -76 0 -1 -27 -1
-60 -1 -56 2 -60 1 -60 -21 0 -22 1 -23 128 -21 120 1 127 2 127 21 0 18 -7
20 -58 20 -31 0 -57 3 -57 6 0 3 26 29 59 58 36 32 58 59 57 72 0 10 -4 20 -8
22 -4 1 -32 -22 -63 -52 -59 -57 -58 -57 -105 -11 -9 8 -30 28 -48 44 l-32 30
0 -30z"/>
<path d="M1750 4430 c0 -23 -7 -22 130 -24 122 -2 130 0 130 25 0 18 -9 19
-130 19 -123 0 -130 -1 -130 -20z"/>
<path d="M1871 4344 c-19 -24 -26 -65 -22 -115 1 -12 -7 -15 -36 -14 -50 2
-63 -3 -63 -26 0 -18 9 -19 124 -19 141 0 136 -3 136 85 0 43 -5 60 -26 84
-34 41 -83 43 -113 5z m96 -53 c5 -14 7 -38 5 -52 -3 -27 -11 -29 -83 -20 -13
2 0 86 16 97 23 17 53 6 62 -25z"/>
<path d="M1084 4261 c-2 -2 -4 -13 -4 -23 0 -15 8 -18 53 -18 l52 0 -1 -53
c-1 -28 -2 -57 -3 -64 -1 -8 -18 -11 -48 -10 -43 1 -48 -1 -51 -21 -3 -22 -2
-22 128 -22 119 0 131 2 128 18 -4 25 -15 29 -67 25 l-48 -3 0 65 -1 65 59 0
c58 0 70 9 51 35 -7 10 -238 15 -248 6z"/>
<path d="M1760 4092 c-6 -2 -10 -12 -10 -23 0 -16 7 -19 54 -19 l54 0 0 -66
c0 -64 -1 -65 -27 -64 -64 5 -81 0 -81 -20 0 -22 0 -22 60 -22 193 0 200 1
200 22 0 16 -8 19 -57 22 l-58 3 -1 50 c-1 72 1 75 62 75 47 0 54 2 54 20 0
14 -7 20 -22 20 -13 1 -67 2 -121 3 -53 1 -102 1 -107 -1z"/>
<path d="M1171 3982 c-117 -19 -133 -183 -24 -229 90 -37 192 15 195 101 3 90
-69 145 -171 128z m92 -53 c47 -21 56 -88 16 -121 -35 -30 -112 -27 -146 5
-37 34 -26 98 20 117 31 12 82 12 110 -1z"/>
<path d="M1750 3780 c0 -22 0 -22 63 -24 l42 -1 2 -62 1 -63 -54 0 c-50 0 -54
-2 -54 -23 0 -22 1 -23 123 -21 149 2 137 0 137 24 0 18 -7 20 -58 20 l-57 0
1 53 c0 28 2 57 2 63 1 7 23 10 57 9 51 -1 55 0 55 22 0 23 -1 23 -130 23
-123 0 -130 -1 -130 -20z"/>
<path d="M1271 3660 l-63 -59 -62 54 c-58 53 -61 54 -64 31 -3 -24 15 -46 98
-115 l25 -20 -62 -1 c-59 0 -63 -2 -63 -23 0 -22 2 -22 128 -22 124 0 127 1
130 23 3 21 0 22 -60 22 l-63 0 59 58 c42 39 61 65 62 85 1 15 1 27 1 27 -1 0
-31 -27 -66 -60z"/>
<path d="M1803 3499 c-31 -11 -56 -54 -56 -97 0 -54 11 -81 32 -79 15 1 17 6
11 27 -16 57 3 105 45 112 17 3 20 -2 17 -35 -4 -52 14 -101 42 -117 36 -19
88 -6 108 28 17 30 15 86 -5 110 -9 12 -9 16 1 19 6 3 12 13 12 22 0 16 -11
18 -93 18 -51 0 -102 -3 -114 -8z m165 -64 c24 -52 9 -85 -39 -85 -30 0 -39
15 -39 64 0 40 6 46 40 46 19 0 30 -7 38 -25z"/>
<path d="M1193 3432 c-17 -11 -15 -112 3 -119 21 -8 26 0 26 44 0 86 -2 92
-29 75z"/>
<path d="M1116 3225 c-18 -12 -33 -34 -39 -54 -11 -44 3 -105 26 -109 15 -3
16 3 11 42 -8 54 14 96 49 96 20 0 22 -4 19 -55 -3 -48 -1 -57 23 -81 22 -22
33 -26 67 -21 22 3 46 14 53 24 19 24 19 81 1 116 -13 24 -13 27 0 27 9 0 14
7 12 17 -3 15 -16 18 -97 18 -79 1 -99 -3 -125 -20z m179 -55 c21 -40 19 -57
-9 -75 -19 -13 -29 -14 -45 -5 -20 10 -23 19 -23 55 0 51 2 55 32 55 23 0 33
-7 45 -30z"/>
<path d="M1799 3238 c-36 -12 -51 -52 -47 -129 l3 -64 115 -1 c63 0 121 2 128
4 17 6 16 126 -3 161 -23 45 -71 55 -105 21 -11 -11 -22 -15 -25 -10 -12 20
-40 27 -66 18z m172 -75 c2 -16 3 -38 1 -51 -3 -20 -8 -23 -39 -20 -34 3 -36
5 -39 41 -4 74 68 101 77 30z m-124 25 c5 -7 11 -32 12 -55 2 -43 2 -43 -34
-43 -35 0 -35 0 -35 43 0 57 32 88 57 55z"/>
<path d="M1270 2945 c-30 -30 -59 -55 -63 -55 -5 0 -32 23 -61 50 -29 28 -56
50 -59 50 -4 0 -7 -10 -7 -22 0 -15 21 -42 61 -78 l61 -56 -48 1 c-63 1 -74
-3 -74 -26 0 -18 9 -19 130 -19 123 0 130 1 130 20 0 21 -13 24 -87 22 -18 -1
-33 0 -33 3 0 2 26 28 58 59 37 35 58 64 60 80 1 14 -2 26 -6 26 -4 -1 -32
-25 -62 -55z"/>
<path d="M1803 2960 c-40 -24 -53 -48 -55 -100 -4 -119 174 -171 246 -73 41
56 12 160 -51 184 -40 15 -106 10 -140 -11z m155 -57 c57 -62 -13 -139 -108
-118 -40 9 -73 51 -65 85 9 35 23 49 59 59 45 12 88 3 114 -26z"/>
<path d="M2299 2819 c0 -30 -2 -106 -5 -169 -15 -361 -9 -517 27 -664 89 -372
398 -542 969 -532 102 2 194 6 205 9 11 2 43 8 70 11 133 19 302 78 390 138
176 119 266 390 194 585 -69 183 -362 325 -1004 484 -152 38 -759 176 -817
186 -28 5 -28 5 -29 -48z"/>
<path d="M1235 2718 c-11 -6 -23 -16 -27 -22 -6 -8 -10 -8 -15 0 -5 6 -22 15
-39 18 -28 6 -35 3 -53 -22 -17 -24 -21 -45 -21 -101 l0 -71 129 0 130 0 -3
80 c-2 65 -6 84 -22 99 -26 26 -55 32 -79 19z m53 -50 c7 -7 12 -33 12 -58 l0
-46 -41 0 -40 0 3 46 c2 25 7 51 11 58 10 15 39 16 55 0z m-107 -10 c1 -7 2
-31 3 -53 1 -39 0 -40 -34 -40 -33 0 -35 2 -35 35 0 19 3 43 8 53 9 19 56 24
58 5z"/>
<path d="M1908 2682 c-9 -2 -20 -12 -23 -24 -7 -20 -7 -20 -22 1 -19 28 -66
27 -93 -1 -20 -22 -23 -36 -21 -98 1 -46 7 -60 25 -60 12 0 15 12 13 56 -2 47
1 59 18 70 29 19 48 3 51 -43 1 -21 3 -41 3 -45 1 -5 9 -8 20 -8 14 0 18 7 16
34 -2 51 10 76 39 76 36 0 50 -32 42 -96 -6 -49 -5 -52 14 -47 11 3 21 14 21
24 1 11 2 34 3 52 5 79 -39 124 -106 109z"/>
<path d="M1106 2418 c-43 -38 -43 -158 -1 -158 11 0 13 11 8 49 -5 41 -2 52
16 70 11 11 29 21 39 21 16 0 18 -7 14 -53 -4 -45 -1 -57 19 -80 13 -15 35
-29 49 -31 35 -5 79 20 86 50 8 32 -2 95 -16 104 -8 5 -6 9 4 13 9 4 16 13 16
22 0 12 -17 15 -104 15 -95 0 -107 -2 -130 -22z m188 -47 c12 -24 13 -68 0
-80 -2 -3 -18 -6 -34 -7 -24 -2 -31 3 -39 27 -6 16 -8 36 -6 44 3 8 7 21 9 29
8 25 56 16 70 -13z"/>
<path d="M1755 2431 c-17 -16 7 -44 86 -100 49 -36 89 -67 89 -70 0 -4 -40 -6
-90 -5 -87 1 -90 0 -90 -21 0 -22 3 -22 130 -23 123 -1 130 0 130 18 0 13 -31
43 -90 87 l-91 68 91 3 c85 3 90 4 90 25 0 22 -3 22 -125 22 -69 1 -128 -1
-130 -4z"/>
<path d="M1080 2090 c0 -103 1 -110 20 -110 17 0 20 7 20 45 l0 45 110 0 c103
0 110 1 110 20 0 19 -7 20 -112 20 l-113 0 2 45 c1 38 -2 45 -18 45 -18 0 -19
-9 -19 -110z"/>
<path d="M1767 2132 c-14 -3 -17 -15 -17 -71 l0 -68 78 -17 c42 -9 82 -18 89
-19 20 -5 53 -39 53 -54 0 -9 8 -13 23 -11 17 2 21 8 18 28 -6 46 -77 87 -183
106 -34 5 -38 10 -38 35 l0 29 111 0 c108 0 110 0 107 22 -3 21 -8 22 -113 23
-61 0 -119 -1 -128 -3z"/>
<path d="M1299 1917 c18 -86 -23 -127 -120 -118 -9 0 -29 13 -44 27 -25 23
-27 30 -21 70 5 38 3 44 -13 44 -34 0 -38 -85 -7 -133 36 -53 132 -71 196 -37
56 30 73 173 21 177 -16 1 -18 -3 -12 -30z"/>
<path d="M1810 1840 c-48 -11 -78 -92 -57 -152 16 -50 36 -34 34 27 -2 57 10
80 48 87 17 3 19 -3 20 -60 0 -55 3 -67 24 -83 25 -21 71 -25 101 -9 31 16 42
65 25 113 -9 25 -11 43 -5 45 6 2 10 11 10 21 0 14 -12 17 -89 16 -48 0 -99
-2 -111 -5z m150 -55 c6 -8 13 -29 13 -47 2 -26 -3 -35 -27 -46 -27 -13 -31
-13 -43 4 -13 18 -18 86 -6 97 12 12 50 7 63 -8z"/>
<path d="M1080 1666 c0 -22 3 -22 130 -22 126 0 131 1 128 20 -3 20 -10 21
-130 22 -126 2 -128 2 -128 -20z"/>
<path d="M1220 1597 c-29 -14 -49 -67 -45 -114 l3 -33 -49 0 c-42 0 -49 -3
-49 -20 0 -19 7 -20 125 -20 69 0 125 1 125 3 15 98 9 140 -27 173 -29 27 -47
29 -83 11z m70 -56 c5 -11 10 -36 10 -55 0 -36 0 -36 -43 -36 -43 0 -44 0 -45
36 -1 20 3 45 9 55 13 25 55 25 69 0z"/>
<path d="M1845 1583 c-71 -14 -107 -56 -96 -116 13 -69 70 -107 153 -101 78 6
118 57 112 143 -5 61 -10 72 -29 65 -13 -5 -15 -15 -9 -49 9 -64 -22 -115 -72
-115 -11 0 -14 18 -14 84 0 87 -4 96 -45 89z m6 -70 c1 -38 -2 -97 -6 -101 -8
-9 -47 22 -55 44 -16 42 5 75 53 83 4 0 7 -11 8 -26z"/>
<path d="M1194 1328 c-12 -6 -27 -20 -34 -33 l-12 -22 -23 23 c-32 32 -84 32
-112 2 -28 -31 -36 -61 -38 -140 -2 -62 0 -68 19 -69 27 -1 305 -1 329 0 15 1
17 10 13 85 -2 46 -8 92 -14 102 -25 48 -85 71 -128 52z m84 -67 c10 -16 17
-48 17 -77 l0 -49 -63 -2 -63 -2 2 57 c3 71 21 102 60 102 21 0 34 -8 47 -29z
m-160 -9 c6 -9 12 -39 12 -68 l0 -53 -54 0 c-33 0 -56 5 -59 12 -9 23 10 110
27 123 20 14 56 8 74 -14z"/>
<path d="M1826 1306 c-68 -19 -98 -91 -65 -154 11 -19 11 -25 0 -32 -8 -4 -12
-14 -9 -21 4 -11 44 -14 192 -13 102 0 188 3 191 6 3 3 3 13 -1 22 -5 13 -20
16 -74 16 l-69 0 14 26 c15 29 10 77 -11 110 -27 40 -104 58 -168 40z m114
-49 c34 -17 47 -57 30 -96 -12 -31 -13 -31 -86 -31 -72 0 -74 1 -89 30 -19 36
-12 67 19 92 25 21 90 23 126 5z"/>
</g>
</svg>
